# xmcd
#
# Track frame offsets: 
#        150
#        17208
#        34210
#        53790
#        83842
#        101686
#        121902
#        138712
#        162986
#        181224
#        205524
#        229422
#
# Disc length: 3553 seconds
#
# Revision: 2
# Processed by: cddbd v1.5.1PL2 Copyright (c) Steve Scherf et al.
# Submitted via: ExactAudioCopy v0.95b4
#
DISCID=a00ddf0c
DTITLE=Kevin Borich - Nomad
DYEAR=2004
DGENRE=Blues -  Blues Rock
TTITLE0=Midnight Boogie
TTITLE1=She'll Never Look Back
TTITLE2=Medicine Man
TTITLE3=Born to Die
TTITLE4=Hell Bound Train
TTITLE5=Motors Hummin
TTITLE6=Fulla Heart'n Soul
TTITLE7=Listen No More
TTITLE8=Slow Replay
TTITLE9=Silent Treatment
TTITLE10=The End
TTITLE11=Nomad
EXTD=
EXTT0=
EXTT1=
EXTT2=
EXTT3=
EXTT4=
EXTT5=
EXTT6=
EXTT7=
EXTT8=
EXTT9=
EXTT10=
EXTT11=
PLAYORDER=
